<mxfile host="app.diagrams.net" modified="2023-09-03T13:22:37.404Z" agent="Mozilla/5.0 (Windows NT 10.0; Win64; x64) AppleWebKit/537.36 (KHTML, like Gecko) Chrome/116.0.0.0 Safari/537.36" etag="po1OHOtNA2uShT52ZQeb" version="21.7.2" type="google">
  <diagram id="LEnrAJp8S9Vm1RweWZ0B" name="Page-1">
    <mxGraphModel grid="1" page="1" gridSize="10" guides="1" tooltips="1" connect="1" arrows="1" fold="1" pageScale="1" pageWidth="1100" pageHeight="850" math="0" shadow="0">
      <root>
        <mxCell id="0" />
        <mxCell id="1" parent="0" />
        <mxCell id="AH-bHdTdp-xWgYnmqS39-18" style="edgeStyle=orthogonalEdgeStyle;rounded=0;orthogonalLoop=1;jettySize=auto;html=1;entryX=0.5;entryY=0;entryDx=0;entryDy=0;entryPerimeter=0;startArrow=classic;startFill=1;" edge="1" parent="1" source="AH-bHdTdp-xWgYnmqS39-5" target="AH-bHdTdp-xWgYnmqS39-16">
          <mxGeometry relative="1" as="geometry" />
        </mxCell>
        <mxCell id="AH-bHdTdp-xWgYnmqS39-20" style="edgeStyle=orthogonalEdgeStyle;rounded=0;orthogonalLoop=1;jettySize=auto;html=1;startArrow=classic;startFill=1;fillColor=#dae8fc;strokeColor=#6c8ebf;" edge="1" parent="1" source="AH-bHdTdp-xWgYnmqS39-5" target="AH-bHdTdp-xWgYnmqS39-11">
          <mxGeometry relative="1" as="geometry" />
        </mxCell>
        <mxCell id="AH-bHdTdp-xWgYnmqS39-21" style="edgeStyle=orthogonalEdgeStyle;rounded=0;orthogonalLoop=1;jettySize=auto;html=1;startArrow=classic;startFill=1;fillColor=#dae8fc;strokeColor=#6c8ebf;" edge="1" parent="1" source="AH-bHdTdp-xWgYnmqS39-5" target="AH-bHdTdp-xWgYnmqS39-10">
          <mxGeometry relative="1" as="geometry" />
        </mxCell>
        <mxCell id="AH-bHdTdp-xWgYnmqS39-5" value="Cloud&lt;br&gt;Backend" style="ellipse;shape=cloud;whiteSpace=wrap;html=1;" vertex="1" parent="1">
          <mxGeometry x="460" y="370" width="120" height="80" as="geometry" />
        </mxCell>
        <mxCell id="AH-bHdTdp-xWgYnmqS39-25" style="edgeStyle=orthogonalEdgeStyle;rounded=0;orthogonalLoop=1;jettySize=auto;html=1;startArrow=classic;startFill=1;fillColor=#e1d5e7;strokeColor=#9673a6;" edge="1" parent="1" source="AH-bHdTdp-xWgYnmqS39-9" target="AH-bHdTdp-xWgYnmqS39-11">
          <mxGeometry relative="1" as="geometry" />
        </mxCell>
        <mxCell id="AH-bHdTdp-xWgYnmqS39-9" value="Customer" style="sketch=0;outlineConnect=0;fontColor=#232F3E;gradientColor=none;fillColor=#232F3D;strokeColor=none;dashed=0;verticalLabelPosition=bottom;verticalAlign=top;align=center;html=1;fontSize=12;fontStyle=0;aspect=fixed;pointerEvents=1;shape=mxgraph.aws4.user;" vertex="1" parent="1">
          <mxGeometry x="840" y="371" width="78" height="78" as="geometry" />
        </mxCell>
        <mxCell id="AH-bHdTdp-xWgYnmqS39-10" value="Web Interface" style="points=[];aspect=fixed;html=1;align=center;shadow=0;dashed=0;image;image=img/lib/allied_telesis/computer_and_terminals/Laptop.svg;" vertex="1" parent="1">
          <mxGeometry x="290.57" y="370" width="78.87" height="80" as="geometry" />
        </mxCell>
        <mxCell id="AH-bHdTdp-xWgYnmqS39-11" value="Smartphone App" style="shape=image;html=1;verticalAlign=top;verticalLabelPosition=bottom;labelBackgroundColor=#ffffff;imageAspect=0;aspect=fixed;image=https://cdn4.iconfinder.com/data/icons/iphone-calculator-shopping-report/128/iPhone.png" vertex="1" parent="1">
          <mxGeometry x="662.5" y="362.5" width="95" height="95" as="geometry" />
        </mxCell>
        <mxCell id="AH-bHdTdp-xWgYnmqS39-13" value="" style="group;fillColor=none;fontStyle=4" vertex="1" connectable="0" parent="1">
          <mxGeometry x="640" y="245" width="140" height="65" as="geometry" />
        </mxCell>
        <mxCell id="AH-bHdTdp-xWgYnmqS39-3" value="Customer System" style="rounded=0;whiteSpace=wrap;html=1;align=left;verticalAlign=top;" vertex="1" parent="AH-bHdTdp-xWgYnmqS39-13">
          <mxGeometry width="140" height="65" as="geometry" />
        </mxCell>
        <mxCell id="AH-bHdTdp-xWgYnmqS39-4" value="" style="shape=image;verticalLabelPosition=bottom;labelBackgroundColor=#ffffff;verticalAlign=top;aspect=fixed;imageAspect=0;image=https://citationvault.com/wp-content/uploads/cpop_main_uploads/74/MosquitoMax_Logo_ONLY-1-2.jpg;" vertex="1" parent="AH-bHdTdp-xWgYnmqS39-13">
          <mxGeometry x="7.100000000000023" y="25" width="125.81" height="30" as="geometry" />
        </mxCell>
        <mxCell id="AH-bHdTdp-xWgYnmqS39-15" value="" style="shape=image;html=1;verticalAlign=top;verticalLabelPosition=bottom;labelBackgroundColor=#ffffff;imageAspect=0;aspect=fixed;image=https://cdn1.iconfinder.com/data/icons/ionicons-fill-vol-2/512/wifi-128.png;fillColor=none;" vertex="1" parent="AH-bHdTdp-xWgYnmqS39-13">
          <mxGeometry x="116" width="24" height="24" as="geometry" />
        </mxCell>
        <mxCell id="AH-bHdTdp-xWgYnmqS39-16" value="Database" style="shape=cylinder3;whiteSpace=wrap;html=1;boundedLbl=1;backgroundOutline=1;size=15;fillColor=none;" vertex="1" parent="1">
          <mxGeometry x="490" y="490" width="60" height="80" as="geometry" />
        </mxCell>
        <mxCell id="AH-bHdTdp-xWgYnmqS39-22" style="edgeStyle=orthogonalEdgeStyle;rounded=0;orthogonalLoop=1;jettySize=auto;html=1;entryX=0.625;entryY=0.2;entryDx=0;entryDy=0;entryPerimeter=0;startArrow=none;startFill=0;fillColor=#d5e8d4;strokeColor=#82b366;" edge="1" parent="1" source="AH-bHdTdp-xWgYnmqS39-3" target="AH-bHdTdp-xWgYnmqS39-5">
          <mxGeometry relative="1" as="geometry" />
        </mxCell>
        <mxCell id="AH-bHdTdp-xWgYnmqS39-24" style="edgeStyle=orthogonalEdgeStyle;rounded=0;orthogonalLoop=1;jettySize=auto;html=1;startArrow=classic;startFill=1;fillColor=#ffe6cc;strokeColor=#d79b00;" edge="1" parent="1" source="AH-bHdTdp-xWgYnmqS39-2" target="AH-bHdTdp-xWgYnmqS39-10">
          <mxGeometry relative="1" as="geometry" />
        </mxCell>
        <mxCell id="AH-bHdTdp-xWgYnmqS39-2" value="Corporate Office" style="rounded=0;whiteSpace=wrap;html=1;align=left;verticalAlign=top;" vertex="1" parent="1">
          <mxGeometry x="60" y="220" width="140" height="380" as="geometry" />
        </mxCell>
        <mxCell id="AH-bHdTdp-xWgYnmqS39-1" value="" style="shape=image;verticalLabelPosition=bottom;labelBackgroundColor=#ffffff;verticalAlign=top;aspect=fixed;imageAspect=0;image=https://citationvault.com/wp-content/uploads/cpop_main_uploads/74/MosquitoMax_Logo_ONLY-1-2.jpg;" vertex="1" parent="1">
          <mxGeometry x="67.10000000000002" y="245" width="125.81" height="30" as="geometry" />
        </mxCell>
        <mxCell id="AH-bHdTdp-xWgYnmqS39-7" value="MM Installer" style="sketch=0;outlineConnect=0;fontColor=#232F3E;gradientColor=none;fillColor=#232F3D;strokeColor=none;dashed=0;verticalLabelPosition=bottom;verticalAlign=top;align=center;html=1;fontSize=12;fontStyle=0;aspect=fixed;pointerEvents=1;shape=mxgraph.aws4.user;" vertex="1" parent="1">
          <mxGeometry x="91" y="275" width="78" height="78" as="geometry" />
        </mxCell>
        <mxCell id="AH-bHdTdp-xWgYnmqS39-8" value="MM Support" style="sketch=0;outlineConnect=0;fontColor=#232F3E;gradientColor=none;fillColor=#232F3D;strokeColor=none;dashed=0;verticalLabelPosition=bottom;verticalAlign=top;align=center;html=1;fontSize=12;fontStyle=0;aspect=fixed;pointerEvents=1;shape=mxgraph.aws4.user;" vertex="1" parent="1">
          <mxGeometry x="91.00999999999999" y="375" width="78" height="78" as="geometry" />
        </mxCell>
        <mxCell id="AH-bHdTdp-xWgYnmqS39-6" value="MM Admin" style="sketch=0;outlineConnect=0;fontColor=#232F3E;gradientColor=none;fillColor=#232F3D;strokeColor=none;dashed=0;verticalLabelPosition=bottom;verticalAlign=top;align=center;html=1;fontSize=12;fontStyle=0;aspect=fixed;pointerEvents=1;shape=mxgraph.aws4.user;" vertex="1" parent="1">
          <mxGeometry x="91.00999999999999" y="479.5" width="78" height="78" as="geometry" />
        </mxCell>
        <mxCell id="AH-bHdTdp-xWgYnmqS39-26" value="Get Weather Data&lt;br&gt;Calculate Sun events&lt;br&gt;Schedule sprays&lt;br&gt;Send Device Status&lt;br&gt;Update Device Settings&lt;br&gt;Pull Device Version Upgrade" style="text;html=1;strokeColor=#82b366;fillColor=#d5e8d4;align=center;verticalAlign=middle;whiteSpace=wrap;rounded=0;" vertex="1" parent="1">
          <mxGeometry x="540" y="100" width="380" height="100" as="geometry" />
        </mxCell>
        <mxCell id="AH-bHdTdp-xWgYnmqS39-29" value="Create Account and Login&lt;br&gt;Add/Setup Device&lt;br&gt;Get Device Settings&lt;br&gt;Update Device Settings&lt;br&gt;Get Device Status&lt;br&gt;Manage Spray Settings&lt;br&gt;Spray actions (now, skip, etc.)&lt;br&gt;Get Device Spray History&lt;br&gt;Get Account Details&lt;br&gt;Update Account Details&lt;br&gt;Request Support&lt;br&gt;Upgrade to a service plan" style="text;html=1;strokeColor=#9673a6;fillColor=#e1d5e7;align=center;verticalAlign=middle;whiteSpace=wrap;rounded=0;" vertex="1" parent="1">
          <mxGeometry x="580" y="510" width="380" height="190" as="geometry" />
        </mxCell>
        <mxCell id="AH-bHdTdp-xWgYnmqS39-30" value="" style="shape=image;html=1;verticalAlign=top;verticalLabelPosition=bottom;labelBackgroundColor=#ffffff;imageAspect=0;aspect=fixed;image=https://cdn3.iconfinder.com/data/icons/strokeline/128/revisi_01-128.png;fillColor=none;" vertex="1" parent="1">
          <mxGeometry x="545" y="392" width="15" height="15" as="geometry" />
        </mxCell>
        <mxCell id="AH-bHdTdp-xWgYnmqS39-32" value="List Accounts&lt;br&gt;Add Accounts&lt;br&gt;Get Customer Account Details&lt;br&gt;Update Customer Account Details&lt;br&gt;List Customer Device(s)&lt;br&gt;Get Customer Device Settings&lt;br&gt;Update Customer Device Settings&lt;br&gt;Get Customer Device Alerts&lt;br&gt;Controller maintenance functions (tech functions)&lt;br&gt;Publish Device Version Update" style="text;html=1;strokeColor=#d79b00;fillColor=#ffe6cc;align=center;verticalAlign=middle;whiteSpace=wrap;rounded=0;" vertex="1" parent="1">
          <mxGeometry x="60" y="50" width="400" height="160" as="geometry" />
        </mxCell>
        <mxCell id="rn8vuAJXcE55Gw5ZBXx7-1" value="" style="shape=image;verticalLabelPosition=bottom;labelBackgroundColor=default;verticalAlign=top;aspect=fixed;imageAspect=0;image=https://upload.wikimedia.org/wikipedia/commons/thumb/3/37/Firebase_Logo.svg/1280px-Firebase_Logo.svg.png;" vertex="1" parent="1">
          <mxGeometry x="320" y="646.48" width="190" height="53.52" as="geometry" />
        </mxCell>
      </root>
    </mxGraphModel>
  </diagram>
</mxfile>
